<svg xmlns="http://www.w3.org/2000/svg" viewBox="0 0 100 100"><defs><style>.cls-1{fill:#ffd400;}.cls-2{fill:none;stroke:#25408f;stroke-width:2px;}.cls-3{fill:#25408f;}</style></defs><title>Capital Markets copy 5</title><g id="Base"><path class="cls-1" d="M50,69.44A28.37,28.37,0,1,0,21.63,41.07,28.37,28.37,0,0,0,50,69.44"/><path class="cls-2" d="M50,69.44A28.37,28.37,0,1,0,21.63,41.07,28.37,28.37,0,0,0,50,69.44Z"/><line class="cls-2" x1="50" y1="68.81" x2="50" y2="87.3"/><path class="cls-3" d="M55.54,39.24l.57-6.73h9V30.17H53.94l-.85,10.48,1.32.84a23.5,23.5,0,0,1,3.89-.44c3.84,0,5.75,1.56,5.75,4.69a4.59,4.59,0,0,1-1.49,3.68,6.29,6.29,0,0,1-4.2,1.27,13.23,13.23,0,0,1-3.14-.39,8.69,8.69,0,0,1-2.66-1.08v2.45a11.17,11.17,0,0,0,5.77,1.21,8.84,8.84,0,0,0,6.11-2,6.9,6.9,0,0,0,2.22-5.45,6,6,0,0,0-2-4.81,8.25,8.25,0,0,0-5.57-1.75,18.35,18.35,0,0,0-3.52.35M35.77,45.11l7-10a28,28,0,0,0,1.38-2.44h.12c-.1,1.84-.16,3.49-.16,4.95v7.45Zm14.12,0H46.56V30h-2.7L33.23,45.2v2.23H44.12v5.15h2.44V47.43h3.33Z"/></g></svg>