<svg xmlns="http://www.w3.org/2000/svg" viewBox="0 0 100 100"><defs><style>.cls-1{fill:#0c9ed9;}.cls-2{fill:none;stroke:#25408f;stroke-width:2px;}.cls-3{fill:#fff;}</style></defs><title>highway - blue</title><g id="Base"><path class="cls-1" d="M78.31,41.92A28.31,28.31,0,1,0,43,69.24l7,17.15,7-17.15a28.24,28.24,0,0,0,21.3-27.32"/><path class="cls-2" d="M78.31,41.92A28.31,28.31,0,1,0,43,69.24l7,17.15,7-17.15A28.24,28.24,0,0,0,78.31,41.92Z"/><path class="cls-3" d="M54.83,39.15l.59-7.1h9.47V29.57H53.13l-.89,11.06,1.39.89a24.17,24.17,0,0,1,4.11-.46q6.06,0,6.06,4.94a4.81,4.81,0,0,1-1.58,3.88,6.58,6.58,0,0,1-4.42,1.35,13.59,13.59,0,0,1-3.31-.42,9.13,9.13,0,0,1-2.82-1.14v2.59a11.89,11.89,0,0,0,6.1,1.28,9.33,9.33,0,0,0,6.44-2.09,7.31,7.31,0,0,0,2.34-5.75,6.37,6.37,0,0,0-2.14-5.08,8.72,8.72,0,0,0-5.88-1.85,18.66,18.66,0,0,0-3.7.38M34,45.34l7.39-10.51a24,24,0,0,0,1.46-2.57h.13c-.11,1.94-.16,3.68-.16,5.22v7.86Zm14.9,0H45.35V29.44H42.5l-11.22,16v2.34h11.5v5.44h2.57V47.78h3.51Z"/></g></svg>