<svg xmlns="http://www.w3.org/2000/svg" viewBox="0 0 100 100"><defs><style>.cls-1{fill:#0c9ed9;}.cls-2,.cls-3{fill:none;stroke-width:2px;}.cls-2{stroke:#25408f;}.cls-3{stroke:#fff;}</style></defs><title>Other marker</title><g id="Base"><path class="cls-1" d="M50,86.15S70.64,45.92,70.64,34.51a20.64,20.64,0,1,0-41.28,0C29.36,45.92,50,86.15,50,86.15"/><path class="cls-2" d="M50,86.15S70.64,45.92,70.64,34.51a20.64,20.64,0,1,0-41.28,0C29.36,45.92,50,86.15,50,86.15Z"/><path class="cls-3" d="M50,56.05S59.33,49.31,59.33,41,50,25.92,50,25.92,40.69,32.67,40.69,41,50,56.05,50,56.05Z"/><line class="cls-3" x1="50.01" y1="55.62" x2="50.01" y2="31.15"/><line class="cls-3" x1="49.93" y1="40.38" x2="43.39" y2="33.85"/><line class="cls-3" x1="50.09" y1="40.38" x2="56.63" y2="33.85"/><line class="cls-3" x1="50.2" y1="48.62" x2="41" y2="39.42"/><line class="cls-3" x1="49.82" y1="48.62" x2="59.02" y2="39.42"/></g></svg>