<svg xmlns="http://www.w3.org/2000/svg" viewBox="0 0 100 100"><defs><style>.cls-1{fill:#ffd400;}.cls-2{fill:none;stroke:#25408f;stroke-width:2px;}.cls-3{fill:#25408f;}</style></defs><title>Yen marker</title><g id="Base"><path class="cls-1" d="M50,86.6S70.9,45.87,70.9,34.32a20.9,20.9,0,1,0-41.8,0C29.1,45.87,50,86.6,50,86.6"/><path class="cls-2" d="M50,86.6S70.9,45.87,70.9,34.32a20.9,20.9,0,1,0-41.8,0C29.1,45.87,50,86.6,50,86.6Z"/><polygon class="cls-3" points="41.55 24.59 37.56 24.59 46.77 41.83 41.04 41.83 41.04 44.68 48.12 44.68 48.12 48.48 41.04 48.48 41.04 51.33 48.12 51.33 48.12 57.33 51.79 57.33 51.79 51.33 58.89 51.33 58.89 48.48 51.79 48.48 51.79 44.68 58.89 44.68 58.89 41.83 53.02 41.83 62.34 24.59 58.44 24.59 49.95 40.87 41.55 24.59"/></g></svg>