<svg xmlns="http://www.w3.org/2000/svg" viewBox="0 0 100 100"><defs><style>.cls-1{fill:#fff;}.cls-2{fill:#25408f;}.cls-3{fill:none;stroke:#25408f;stroke-width:2px;}</style></defs><title>Dollar marker</title><g id="Base"><path class="cls-1" d="M49.58,86.41S70.41,45.81,70.41,34.3a20.84,20.84,0,1,0-41.67,0c0,11.51,20.84,52.11,20.84,52.11"/><path class="cls-2" d="M45.37,32a5.66,5.66,0,0,1,3-1.23v7.62a8.6,8.6,0,0,1-3.08-1.71,3.27,3.27,0,0,1-.88-2.4,3,3,0,0,1,1-2.28m5.5,18.13V42.51a9.38,9.38,0,0,1,3.39,1.74,3.08,3.08,0,0,1,.88,2.3c0,2-1.43,3.22-4.27,3.62m6.89-6.82a6.47,6.47,0,0,0-2.27-2.15,22.62,22.62,0,0,0-4.62-1.92V30.73a20.24,20.24,0,0,1,6,1.38l1-2.58a20.27,20.27,0,0,0-7-1.46V24.53H48.33v3.58a9.76,9.76,0,0,0-5.29,2,5.27,5.27,0,0,0-2,4.24,6,6,0,0,0,1.63,4.37,13.49,13.49,0,0,0,5.66,3v8.66a18.36,18.36,0,0,1-3.89-.46,19,19,0,0,1-3.77-1.19v3.07a13.35,13.35,0,0,0,3.38,1,25.94,25.94,0,0,0,4.28.34v4.39h2.54V52.91a10.42,10.42,0,0,0,5.61-2.2,6,6,0,0,0,1.28-7.36"/><path class="cls-3" d="M49.58,86.41S70.41,45.81,70.41,34.3a20.84,20.84,0,1,0-41.67,0C28.74,45.81,49.58,86.41,49.58,86.41Z"/></g></svg>