<svg xmlns="http://www.w3.org/2000/svg" viewBox="0 0 100 100"><defs><style>.cls-1{fill:#fff;}.cls-2{fill:none;stroke:#25408f;stroke-width:2px;}.cls-3{fill:#25408f;}</style></defs><title>highway - white</title><g id="Base"><polygon class="cls-1" points="21.45 13.68 21.45 70.79 43.65 70.79 50 86.32 56.35 70.79 78.55 70.79 78.55 13.68 21.45 13.68"/><polygon class="cls-2" points="21.45 13.68 21.45 70.79 43.65 70.79 50 86.32 56.35 70.79 78.55 70.79 78.55 13.68 21.45 13.68"/><path class="cls-3" d="M54.93,38.92l.6-7.12H65V29.31H53.23l-.89,11.1,1.39.89a24.67,24.67,0,0,1,4.12-.47q6.09,0,6.09,5a4.8,4.8,0,0,1-1.59,3.89A6.61,6.61,0,0,1,57.92,51a14.31,14.31,0,0,1-3.33-.41,9.28,9.28,0,0,1-2.82-1.15v2.6a11.91,11.91,0,0,0,6.11,1.28,9.39,9.39,0,0,0,6.47-2.09,7.37,7.37,0,0,0,2.35-5.78,6.37,6.37,0,0,0-2.16-5.09,8.68,8.68,0,0,0-5.89-1.85,18.85,18.85,0,0,0-3.72.37M34,45.13l7.41-10.54A24.23,24.23,0,0,0,42.87,32H43c-.1,1.94-.16,3.69-.16,5.24v7.88Zm14.94,0H45.42v-16H42.57l-11.26,16v2.35H42.84V53h2.58V47.58h3.52Z"/></g></svg>